<svg width="1201" height="1136" viewBox="0 0 1201 1136" fill="none" xmlns="http://www.w3.org/2000/svg">
<path fill-rule="evenodd" clip-rule="evenodd" d="M812.989 6.87849C809.42 10.62 804.474 15.1212 802 16.8805C799.525 18.6398 796.238 21.7445 794.698 23.7807C791.352 28.2029 785.05 32.6121 780.094 34.0006C777.409 34.7523 775.165 36.7095 771.218 41.7435C763.399 51.7185 759.879 64.7942 762.476 74.2204C763.065 76.3586 762.89 76.9693 761.689 76.9693C760.84 76.9693 758.84 78.5517 757.245 80.4849L754.346 84.0015L750.924 81.4855C749.041 80.1031 746.188 78.1828 744.585 77.2202C742.981 76.2576 739.997 74.0035 737.952 72.2112C735.907 70.418 730.281 67.1263 725.451 64.8952C720.555 62.6351 713.53 58.2768 709.583 55.0541C689.008 38.2509 654.141 20.3291 632.5 15.434C629.2 14.6873 624.025 13.1989 621 12.1274C609.234 7.95705 579.377 4.95526 546.989 4.68537C523.294 4.48845 483.062 6.98144 468.5 9.54841C464.1 10.3241 458.636 10.9668 456.359 10.9778C453.007 10.9918 451.292 11.7635 447.359 15.0272C444.686 17.2443 441.375 19.3085 440 19.6134C429.258 22.0024 421.315 26.3037 407 37.4852C401.775 41.5666 394.125 46.7825 390 49.0765C385.875 51.3696 378.9 55.3 374.5 57.811C370.1 60.322 362.674 64.4374 358 66.9574C353.325 69.4773 347.52 72.9859 345.1 74.7542C342.68 76.5225 340.107 77.9689 339.383 77.9689C338.659 77.9689 335.831 79.9531 333.1 82.3792C330.368 84.8042 327.144 87.1023 325.935 87.4851C323.124 88.3777 309.855 97.3591 307.491 99.9701C305.613 102.043 303 102.65 303 101.012C303 100.49 304.201 96.3296 305.669 91.7654C309.24 80.6649 309.503 64.2624 306.289 53.1859C305.125 49.1765 303.763 45.353 303.262 44.6893C302.759 44.0256 301.802 41.5666 301.132 39.2245C299.634 33.9886 293.924 27.935 291.165 28.6557C288.593 29.3285 284.272 26.9644 280.053 22.5762C278.158 20.605 275.952 18.9926 275.15 18.9926C274.348 18.9926 270.823 17.3893 267.316 15.4291C262.072 12.4972 258.419 11.4227 246.721 9.37148C237.982 7.8391 230.044 7.01943 226.13 7.24334C220.463 7.56721 219.528 7.92606 217.658 10.491C216.502 12.0764 214.217 14.5264 212.581 15.9338C210.945 17.3413 206.818 20.9668 203.41 23.9906C200.002 27.0144 195.378 30.7129 193.134 32.2083C186.999 36.2987 183.406 41.8724 182.626 48.5068C182.262 51.5975 181.126 55.7798 180.101 57.801C179.076 59.8222 177.927 64.1765 177.549 67.4781C176.98 72.4352 177.236 74.3494 179.016 78.4737C180.517 81.9493 181.015 84.6622 180.656 87.4011C180.078 91.8094 181.477 95.217 185.349 98.8316C186.745 100.136 189.485 105.309 191.437 110.327C196.179 122.515 198.136 125.469 203.177 128.039C205.517 129.232 209.284 132.114 211.548 134.442C218.84 141.942 230.827 144.832 243.005 142.027C258.958 138.354 257.517 143.361 238.565 157.454C225.002 167.54 223.025 169.638 219.012 178.195C216.827 182.853 214.941 185.422 212.95 186.451C211.36 187.273 207.468 189.76 204.301 191.978C197.457 196.769 194.446 196.846 191.514 192.302C189.963 189.9 187.951 188.68 182.763 187C179.058 185.801 174.695 183.698 173.067 182.33C170.076 179.814 153.554 174.93 148.036 174.93C146.444 174.93 143.404 173.432 140.659 171.294L135.99 167.658L128.404 168.345C122.564 168.874 119.665 168.65 115.814 167.371C111.562 165.96 109.916 165.887 104.833 166.886C99.8575 167.865 97.4585 167.785 90.5415 166.413C82.8975 164.897 81.9785 164.893 79.1235 166.369C77.4165 167.252 75.1525 169.672 74.0935 171.747C71.8195 176.202 65.4495 182.28 57.5755 187.506C54.0065 189.875 50.0495 193.823 46.8785 198.182C42.6825 203.949 40.9025 205.51 36.1725 207.569C33.0525 208.928 29.0435 210.676 27.2645 211.453C23.5105 213.095 15.8825 222.899 12.2325 230.774C10.0925 235.391 9.83651 237.007 10.3885 242.397C11.2635 250.934 9.63651 257.913 5.94551 261.447C3.67951 263.617 2.99951 265.16 2.99951 268.133C2.99951 270.258 2.27351 275.188 1.38551 279.087C-0.844486 288.889 -0.135487 292.976 5.46851 302.616C9.44451 309.456 10.1295 311.36 9.59951 314.095C7.50951 324.869 7.61651 326.687 10.4845 329.083C19.5325 336.645 21.2805 338.659 24.5035 345.233C26.5345 349.377 28.6595 355.909 29.5815 360.844C33.0675 379.502 42.8615 391.198 56.8735 393.438C60.7355 394.055 60.9415 394.274 61.5635 398.416C61.9205 400.799 62.7275 403.406 63.3565 404.21C64.9015 406.185 83.9205 415.833 86.2705 415.833C87.3005 415.833 90.1515 417.01 92.6055 418.447C96.7845 420.895 97.6835 421.032 106.784 420.603C113.189 420.3 117.522 419.583 119.5 418.495C122.508 416.841 129.416 416.288 132.465 417.458C133.36 417.8 135.242 420.349 136.648 423.121C140.793 431.299 139.715 434.722 126.198 456.284C117.692 469.852 112.685 480.137 108.146 493.367C104.303 504.569 97.9995 528.924 97.9985 532.579C97.9985 534.068 96.6075 538.209 94.9075 541.783C90.5945 550.85 88.2795 566.745 86.7535 597.76C85.1195 630.97 85.0915 670.208 86.6985 674.229C87.3585 675.879 88.8615 681.376 90.0385 686.445C92.0795 695.231 92.1035 695.892 90.5385 700.602C88.8735 705.611 87.6205 706.716 83.6045 706.716C82.3775 706.716 80.0515 708.112 78.4365 709.816C76.8215 711.521 71.4495 716.311 66.4995 720.459C61.5495 724.607 56.9885 728.947 56.3645 730.104C55.7405 731.261 54.9225 734.68 54.5465 737.704C54.1705 740.728 53.1785 745.351 52.3415 747.977C50.9295 752.41 50.9705 753.434 52.9105 762.25C54.0595 767.474 56.2875 774.321 57.8625 777.467C59.4365 780.612 61.2985 784.985 62.0005 787.184C63.7235 792.581 66.1065 795.948 73.9005 803.992C79.2975 809.564 82.6315 811.896 92.2105 816.797C103.447 822.546 109 827.025 109 830.339C109 831.174 108.162 833.052 107.138 834.511C106.015 836.111 105.049 839.742 104.704 843.661C104.389 847.235 103.024 852.858 101.672 856.156C100.32 859.455 98.9125 864.7 98.5455 867.813C97.9295 873.038 98.1605 874.01 101.559 880.495C104.871 886.815 105.128 887.839 104.12 890.729C102.424 895.591 102.639 896.224 107.578 900.955C111.354 904.572 112.667 906.862 115.078 914.033C116.685 918.814 118 923.542 118 924.54C118 927.061 123.202 933.348 128.264 936.946C130.594 938.601 134.525 941.843 137 944.149C142.635 949.4 154.105 955.668 164.372 959.108C173.1 962.032 180.207 962.121 200.5 959.558C215.547 957.658 224.813 957.774 229.116 959.915C232.055 961.378 233.402 963.154 236.315 969.411C238.285 973.644 240.88 979.807 242.081 983.105C245.005 991.136 249.072 995.911 260.484 1004.71C272.986 1014.35 278.073 1017.19 286.197 1019.05C293.789 1020.8 309.181 1021.07 316.908 1019.61C325.66 1017.95 358.724 1018.18 365.047 1019.94C374.138 1022.47 381.939 1022.9 386.876 1021.15C393.821 1018.68 395.941 1019.09 400.519 1023.84C404.991 1028.47 416.901 1038.47 422.375 1042.19C431.257 1048.22 455.245 1054.47 475.334 1055.98C479.642 1056.3 489.992 1057.74 498.334 1059.18C511.339 1061.42 515.565 1061.72 528 1061.34C540.286 1060.97 543.136 1061.17 546.663 1062.66C548.953 1063.63 555.919 1065.84 562.143 1067.57C568.367 1069.29 574.054 1071.2 574.781 1071.8C575.733 1072.59 575.92 1074.35 575.453 1078.09C574.818 1083.18 574.891 1083.38 579.326 1088.37C582.916 1092.41 584.398 1095.26 586.521 1102.22C589.445 1111.8 590.602 1113.26 603.294 1123.34C617.963 1134.99 630.994 1137.88 649.739 1133.64C654.82 1132.49 662.417 1131.55 666.62 1131.55C675.423 1131.55 686.242 1128.3 701.903 1120.95C713.366 1115.57 719.615 1110.92 725.383 1103.5C731.143 1096.08 733.047 1095.65 738.346 1100.51C740.63 1102.6 744.906 1105.16 747.849 1106.19C752.028 1107.65 753.609 1108.82 755.077 1111.55C756.11 1113.48 757.583 1115.85 758.352 1116.82C759.834 1118.7 769.308 1122.85 774.773 1124.02C776.575 1124.4 779.468 1125.91 781.203 1127.37C786.253 1131.62 794.434 1131.54 817.504 1127.01C833.31 1123.92 838.515 1123.3 848.5 1123.36C861.924 1123.44 865.473 1122.36 877.518 1114.53C880.828 1112.38 888.318 1108.85 894.164 1106.68C900.01 1104.51 905.948 1101.98 907.362 1101.06C909.742 1099.5 910.395 1099.49 916.279 1100.97C919.771 1101.84 924.27 1102.56 926.276 1102.56C931.84 1102.56 941.015 1106.4 945.728 1110.7C948.053 1112.82 950.895 1114.55 952.043 1114.55C953.191 1114.55 957.969 1116.58 962.661 1119.05C970.622 1123.25 971.703 1123.55 978.852 1123.55C983.065 1123.55 992.359 1122.84 999.505 1121.96C1006.65 1121.09 1015.87 1120.27 1020 1120.15C1042.12 1119.46 1069.12 1103.47 1076.74 1086.54C1078.35 1082.95 1080 1078.68 1080.41 1077.04C1080.82 1075.41 1083.65 1068.91 1086.71 1062.61C1091.92 1051.85 1092.4 1050.21 1094.62 1035.62C1096.73 1021.8 1097.47 1019.1 1101.39 1011.09C1105.89 1001.89 1106.29 1000.5 1110.09 980.612C1112.18 969.66 1112.23 968.377 1111.01 953.123C1109.89 939.171 1109.38 936.42 1106.99 931.626C1105.48 928.602 1103.27 922.576 1102.08 918.232C1100.9 913.89 1099.1 909.167 1098.09 907.737C1097.09 906.307 1095.97 904.184 1095.61 903.02C1095.24 901.855 1094.06 900.099 1092.97 899.116C1091.89 898.134 1091 896.232 1091 894.891C1091 893.549 1094.33 885.41 1098.41 876.803C1106.2 860.344 1106.73 858.602 1110.04 838.723C1111.76 828.392 1112.69 825.348 1115.54 820.731C1117.43 817.674 1121.16 808.875 1123.83 801.178C1126.5 793.482 1129.43 785.745 1130.34 783.985C1131.25 782.225 1132 780.193 1132 779.469C1132 778.744 1133.11 776.513 1134.47 774.511C1135.84 772.509 1137.36 769.058 1137.85 766.842C1138.35 764.627 1139.72 761.593 1140.89 760.101C1142.07 758.61 1144.19 753.523 1145.61 748.796C1147.03 744.069 1149.5 737.848 1151.09 734.97C1152.69 732.092 1154 728.868 1154 727.804C1154 726.74 1154.64 724.597 1155.43 723.041C1159.53 714.956 1165 694.313 1167.45 677.728C1170.84 654.71 1171.63 650.713 1174.64 641.354C1176.5 635.586 1177.02 632.352 1176.56 629.318C1176.18 626.754 1176.48 623.649 1177.35 621.187C1178.28 618.548 1178.52 615.657 1178.05 612.613C1177.67 610.088 1177.68 607.139 1178.08 606.061C1178.48 604.981 1179.11 599.187 1179.48 593.183C1180.09 583.165 1179.94 581.691 1177.67 575.269C1176.32 571.421 1174.68 565.573 1174.03 562.274C1173.38 558.976 1171.1 550.429 1168.96 543.282C1166.82 536.135 1164.37 527.282 1163.53 523.61C1162.68 519.936 1160.42 513.652 1158.49 509.644C1156.57 505.635 1155 501.733 1155 500.973C1155 500.213 1151.83 490.177 1147.95 478.671C1142.5 462.492 1140.49 454.871 1139.05 445.039C1133.56 407.566 1123.92 370.674 1112.99 345.362C1110.38 339.314 1107.69 332.567 1107.01 330.368C1105.06 324.054 1095.68 305.744 1090.29 297.712C1087.58 293.681 1083.68 287.178 1081.62 283.258C1079.56 279.34 1075.32 273.13 1072.19 269.457C1069.06 265.784 1065.03 260.893 1063.23 258.588C1055.43 248.61 1053.43 246.517 1045.68 240.269C1041.18 236.641 1035.44 231.138 1032.92 228.042C1025.1 218.439 1015.08 208.731 1000 196.166C992.025 189.52 983.474 181.899 981 179.229C977.378 175.323 974.957 173.814 968.594 171.496C963.665 169.701 958.631 166.941 955.224 164.167C952.219 161.719 947.676 158.815 945.13 157.713C939.543 155.293 934 150.266 934 147.618C934 146.556 935.766 142.484 937.924 138.568C940.083 134.651 942.513 129.648 943.323 127.449C944.133 125.25 945.739 121.092 946.892 118.209C948.122 115.13 949.627 107.453 950.536 99.6112L952.085 86.2566L948.477 78.0539C946.492 73.5427 944.428 67.0673 943.887 63.6637C943.347 60.261 941.589 54.9322 939.979 51.8214C938.37 48.7107 936.755 44.3094 936.393 42.0404C935.125 34.1105 929.455 29.9882 919.817 29.9882C914.709 29.9882 914.422 29.8313 909.034 24.1086C905.345 20.1901 902.166 17.8161 899.5 16.9884C897.299 16.3057 894.599 14.9562 893.5 13.9886C890.242 11.1228 885.956 9.36149 878 7.61619C873.875 6.71155 869.261 5.32911 867.747 4.54342C864.919 3.07601 849.921 1.48165 830.489 0.584014L819.479 0.0742188L812.989 6.87849ZM1111.85 175.609C1110.94 175.845 1108.94 177.852 1107.4 180.069C1105.86 182.286 1102.74 185.384 1100.46 186.953C1098.18 188.523 1095 191.302 1093.39 193.132C1091.78 194.96 1088.39 197.676 1085.84 199.166C1079.14 203.095 1075 209.76 1075 216.634C1075 219.591 1074.32 223.319 1073.5 224.918C1072.67 226.517 1071.53 231.171 1070.96 235.26C1070 242.137 1070.09 243.016 1072.17 247.002C1073.71 249.965 1074.35 252.773 1074.21 255.985C1074.07 259.219 1074.5 261.062 1075.59 261.969C1078.83 264.661 1083.03 271.903 1084.41 277.193C1085.19 280.2 1086.53 284.02 1087.39 285.682C1089.23 289.237 1095.54 294.705 1098.75 295.524C1099.99 295.839 1101 296.744 1101 297.535C1101 300.27 1105.61 303.553 1113.87 306.707C1123.57 310.412 1125.4 310.499 1137.9 307.861C1143.07 306.77 1150.4 305.877 1154.18 305.877C1162.15 305.877 1166.59 303.993 1176.98 296.217L1183.46 291.365L1185.48 282.796C1186.79 277.264 1188.49 272.931 1190.29 270.571C1191.83 268.56 1194.64 262.218 1196.54 256.477C1201.61 241.164 1201.42 234.812 1195.31 216.091C1189.57 198.505 1187.26 195.37 1180.74 196.307C1175.78 197.02 1175.36 196.78 1171.73 191.173C1170.21 188.836 1168.37 186.925 1167.64 186.925C1166.91 186.925 1161.92 185.088 1156.54 182.843C1150.58 180.354 1144.57 178.576 1141.13 178.288C1138.03 178.028 1133.7 177.417 1131.5 176.93C1126.65 175.856 1114.13 175.015 1111.85 175.609ZM363.683 660.923C363.364 661.719 363.127 661.483 363.079 660.318C363.036 659.264 363.272 658.675 363.604 659.007C363.936 659.338 363.972 660.201 363.683 660.923Z" fill="#FF5D28"/>
<circle cx="599.87" cy="567.87" r="415.37" stroke="white" stroke-width="25"/>
<path d="M387.25 770.491C382.137 770.491 378 774.635 378 779.745C378 784.856 382.137 789 387.25 789C388.196 789 813.703 788.997 812.75 789C817.863 789 822 784.856 822 779.745C822 774.935 818.292 771.11 813.597 770.662C814.017 768.884 814.295 767.054 814.295 765.15C814.295 726.655 814.295 705.076 814.295 657.584C814.295 637.926 803.918 620.687 788.389 610.936H808.947C814.06 610.936 818.197 606.793 818.197 601.682V583.887C818.197 578.776 814.06 574.632 808.947 574.632C803.834 574.632 799.697 578.776 799.697 583.887V592.427H773.644L756.907 555.025C745.01 528.446 717.757 511.274 687.478 511.274H585.375C555.105 511.274 527.852 528.446 515.955 555.025L499.211 592.427H473.156V583.887C473.156 578.776 469.019 574.632 463.906 574.632C458.793 574.632 454.656 578.776 454.656 583.887V601.682C454.656 606.793 458.793 610.936 463.906 610.936H484.47C468.938 620.687 458.558 637.926 458.558 657.584C458.556 668.211 458.565 618.446 458.54 765.15C458.54 766.991 458.791 768.767 459.185 770.491H410.294V506.303H510.716C520.661 506.303 528.746 498.165 528.746 488.165V368.873C528.746 358.873 520.661 350.735 510.716 350.735H401.008C395.895 350.735 391.758 354.878 391.758 359.989C391.761 401.205 391.79 729.277 391.794 770.491H387.25ZM510.716 487.794H410.294C410.293 461.59 410.296 552.219 410.29 369.244H510.246L510.716 487.794ZM542.901 733.247H729.934V765.15C729.934 766.991 730.185 768.767 730.578 770.491H542.257C542.65 768.767 542.901 766.991 542.901 765.15V733.247ZM795.795 733.247V765.15C795.795 767.841 793.839 769.985 791.297 770.491H752.911C750.349 769.986 748.434 767.879 748.434 765.15V733.247H795.795ZM691.235 621.004L685.707 644.507C682.844 653.422 675.463 658.538 665.464 658.538H605.339C595.339 658.538 587.959 653.427 585.303 645.212L579.576 621.004H691.235ZM532.847 562.59C541.627 542.969 562.738 529.783 585.375 529.783H687.478C710.124 529.783 731.234 542.969 740.015 562.59L757.837 602.4H515.025L532.847 562.59ZM513.625 621.004H560.572L567.49 650.164C572.801 666.748 587.308 677.047 605.339 677.047H665.464C683.485 677.047 697.992 666.748 703.52 649.468L710.239 621.004H759.237C779.399 621.004 795.795 637.412 795.795 657.584V714.715C794.866 714.715 466.431 714.749 477.058 714.715V657.584C477.058 637.412 493.462 621.004 513.625 621.004ZM477.04 765.15V733.247H524.401V765.15C524.401 767.879 522.486 769.986 519.931 770.491H481.546C479.002 769.985 477.04 767.841 477.04 765.15Z" fill="white"/>
<path d="M523.29 695C538.592 695 551.04 682.546 551.04 667.236C551.04 651.927 538.592 639.473 523.29 639.473C507.988 639.473 495.54 651.927 495.54 667.236C495.54 682.546 507.988 695 523.29 695ZM523.29 657.982C528.394 657.982 532.54 662.135 532.54 667.236C532.54 672.338 528.394 676.491 523.29 676.491C518.186 676.491 514.04 672.338 514.04 667.236C514.04 662.135 518.186 657.982 523.29 657.982Z" fill="white"/>
<path d="M749.545 695C764.847 695 777.295 682.546 777.295 667.236C777.295 651.927 764.847 639.473 749.545 639.473C734.242 639.473 721.795 651.927 721.795 667.236C721.795 682.546 734.242 695 749.545 695ZM749.545 657.982C754.648 657.982 758.795 662.135 758.795 667.236C758.795 672.338 754.648 676.491 749.545 676.491C744.441 676.491 740.295 672.338 740.295 667.236C740.295 662.135 744.441 657.982 749.545 657.982Z" fill="white"/>
<path d="M431.603 460.243C431.603 465.354 435.74 469.498 440.853 469.498C445.966 469.498 450.103 465.354 450.103 460.243V441.671H461.81C476.76 441.671 488.928 429.497 488.928 414.536C488.928 399.651 476.76 387.54 461.81 387.54H440.826C435.713 387.54 431.576 391.684 431.576 396.795V432.416C431.576 432.464 431.602 432.503 431.603 432.551V460.243ZM470.428 414.536C470.428 419.294 466.562 423.162 461.81 423.162H450.103V406.049H461.81C466.562 406.049 470.428 409.854 470.428 414.536Z" fill="white"/>
<path d="M607.037 474.342C603.46 477.984 603.505 483.845 607.145 487.428C610.753 490.992 616.606 490.995 620.225 487.329C657.893 449.035 657.427 387.351 619.15 349.664C615.51 346.067 609.657 346.125 606.07 349.763C602.493 353.405 602.538 359.266 606.179 362.849C637.159 393.378 637.544 443.343 607.037 474.342Z" fill="white"/>
<path d="M581.229 370.468C577.652 374.11 577.697 379.971 581.337 383.559C600.795 402.723 601.039 434.165 581.879 453.637C578.302 457.279 578.347 463.14 581.988 466.723C585.595 470.287 591.449 470.29 595.068 466.624C621.382 439.873 621.047 396.695 594.309 370.364C590.669 366.776 584.815 366.826 581.229 370.468Z" fill="white"/>
<path d="M556.632 391.169C553.054 394.811 553.1 400.672 556.74 404.255C564.698 412.1 564.798 424.969 556.957 432.936C553.38 436.578 553.425 442.439 557.065 446.023C560.672 449.586 566.526 449.589 570.145 445.923C585.14 430.681 584.951 406.072 569.712 391.069C566.071 387.472 560.218 387.531 556.632 391.169Z" fill="white"/>
</svg>
