<svg width="1201" height="1136" viewBox="0 0 1201 1136" fill="none" xmlns="http://www.w3.org/2000/svg">
<path fill-rule="evenodd" clip-rule="evenodd" d="M812.989 6.87849C809.42 10.62 804.475 15.1212 802 16.8805C799.525 18.6398 796.239 21.7445 794.699 23.7807C791.353 28.2029 785.051 32.6121 780.095 34.0006C777.409 34.7523 775.165 36.7095 771.218 41.7435C763.399 51.7185 759.879 64.7942 762.476 74.2204C763.065 76.3586 762.89 76.9693 761.689 76.9693C760.84 76.9693 758.841 78.5517 757.246 80.4849L754.347 84.0015L750.924 81.4855C749.041 80.1031 746.188 78.1828 744.585 77.2202C742.981 76.2576 739.997 74.0035 737.952 72.2112C735.907 70.418 730.282 67.1263 725.451 64.8952C720.556 62.6351 713.53 58.2768 709.583 55.0541C689.008 38.2509 654.141 20.3291 632.5 15.434C629.2 14.6873 624.025 13.1989 621 12.1274C609.234 7.95705 579.377 4.95526 546.989 4.68537C523.294 4.48845 483.063 6.98144 468.5 9.54841C464.1 10.3241 458.636 10.9668 456.359 10.9778C453.007 10.9918 451.292 11.7635 447.359 15.0272C444.686 17.2443 441.375 19.3085 440 19.6134C429.258 22.0024 421.315 26.3037 407 37.4852C401.775 41.5666 394.125 46.7825 390 49.0765C385.875 51.3696 378.9 55.3 374.5 57.811C370.1 60.322 362.675 64.4374 358 66.9574C353.325 69.4773 347.52 72.9859 345.1 74.7542C342.68 76.5225 340.107 77.9689 339.383 77.9689C338.659 77.9689 335.831 79.9531 333.1 82.3792C330.368 84.8042 327.144 87.1023 325.935 87.4851C323.124 88.3777 309.855 97.3591 307.491 99.9701C305.614 102.043 303 102.65 303 101.012C303 100.49 304.201 96.3296 305.669 91.7654C309.24 80.6649 309.503 64.2624 306.289 53.1859C305.125 49.1765 303.763 45.353 303.262 44.6893C302.76 44.0256 301.802 41.5666 301.132 39.2245C299.634 33.9886 293.924 27.935 291.165 28.6557C288.593 29.3285 284.273 26.9644 280.054 22.5762C278.158 20.605 275.952 18.9926 275.15 18.9926C274.348 18.9926 270.823 17.3893 267.317 15.4291C262.072 12.4972 258.42 11.4227 246.721 9.37148C237.982 7.8391 230.044 7.01943 226.13 7.24334C220.463 7.56721 219.528 7.92606 217.658 10.491C216.502 12.0764 214.218 14.5264 212.581 15.9338C210.945 17.3413 206.818 20.9668 203.41 23.9906C200.002 27.0144 195.378 30.7129 193.134 32.2083C186.999 36.2987 183.406 41.8724 182.626 48.5068C182.262 51.5975 181.126 55.7798 180.101 57.801C179.076 59.8222 177.927 64.1765 177.549 67.4781C176.98 72.4352 177.236 74.3494 179.016 78.4737C180.517 81.9493 181.015 84.6622 180.656 87.4011C180.078 91.8094 181.477 95.217 185.349 98.8316C186.745 100.136 189.485 105.309 191.437 110.327C196.179 122.515 198.136 125.469 203.177 128.039C205.517 129.232 209.284 132.114 211.548 134.442C218.84 141.942 230.827 144.832 243.005 142.027C258.958 138.354 257.517 143.361 238.565 157.454C225.002 167.54 223.025 169.638 219.012 178.195C216.827 182.853 214.941 185.422 212.95 186.451C211.36 187.273 207.468 189.76 204.301 191.978C197.457 196.769 194.446 196.846 191.514 192.302C189.963 189.9 187.951 188.68 182.763 187C179.058 185.801 174.695 183.698 173.067 182.33C170.076 179.814 153.554 174.93 148.036 174.93C146.444 174.93 143.404 173.432 140.659 171.294L135.99 167.658L128.404 168.345C122.564 168.874 119.665 168.65 115.814 167.371C111.562 165.96 109.916 165.887 104.833 166.886C99.858 167.865 97.459 167.785 90.542 166.413C82.898 164.897 81.979 164.893 79.124 166.369C77.417 167.252 75.153 169.672 74.094 171.747C71.82 176.202 65.45 182.28 57.576 187.506C54.007 189.875 50.05 193.823 46.879 198.182C42.683 203.949 40.903 205.51 36.173 207.569C33.053 208.928 29.044 210.676 27.265 211.453C23.511 213.095 15.883 222.899 12.233 230.774C10.093 235.391 9.837 237.007 10.389 242.397C11.264 250.934 9.637 257.913 5.946 261.447C3.68 263.617 3 265.16 3 268.133C3 270.258 2.274 275.188 1.386 279.087C-0.843998 288.889 -0.134998 292.976 5.469 302.616C9.445 309.456 10.13 311.36 9.6 314.095C7.51 324.869 7.617 326.687 10.485 329.083C19.533 336.645 21.281 338.659 24.504 345.233C26.535 349.377 28.66 355.909 29.582 360.844C33.068 379.502 42.862 391.198 56.874 393.438C60.736 394.055 60.942 394.274 61.564 398.416C61.921 400.799 62.728 403.406 63.357 404.21C64.902 406.185 83.921 415.833 86.271 415.833C87.301 415.833 90.152 417.01 92.606 418.447C96.785 420.895 97.684 421.032 106.784 420.603C113.189 420.3 117.522 419.583 119.5 418.495C122.508 416.841 129.416 416.288 132.465 417.458C133.36 417.8 135.242 420.349 136.648 423.121C140.793 431.299 139.715 434.722 126.198 456.284C117.692 469.852 112.685 480.137 108.146 493.367C104.303 504.569 98 528.924 97.999 532.579C97.999 534.068 96.608 538.209 94.908 541.783C90.595 550.85 88.28 566.745 86.754 597.76C85.12 630.97 85.092 670.208 86.699 674.229C87.359 675.879 88.862 681.376 90.039 686.445C92.08 695.231 92.104 695.892 90.539 700.602C88.874 705.611 87.621 706.716 83.605 706.716C82.378 706.716 80.052 708.112 78.437 709.816C76.822 711.521 71.45 716.311 66.5 720.459C61.55 724.607 56.989 728.947 56.365 730.104C55.741 731.261 54.923 734.68 54.547 737.704C54.171 740.728 53.179 745.351 52.342 747.977C50.93 752.41 50.971 753.434 52.911 762.25C54.06 767.474 56.288 774.321 57.863 777.467C59.437 780.612 61.299 784.985 62.001 787.184C63.724 792.581 66.107 795.948 73.901 803.992C79.298 809.564 82.632 811.896 92.211 816.797C103.447 822.546 109 827.025 109 830.339C109 831.174 108.162 833.052 107.138 834.511C106.015 836.111 105.049 839.742 104.704 843.661C104.389 847.235 103.024 852.858 101.672 856.156C100.32 859.455 98.913 864.7 98.546 867.813C97.93 873.038 98.161 874.01 101.559 880.495C104.871 886.815 105.128 887.839 104.12 890.729C102.424 895.591 102.639 896.224 107.578 900.955C111.354 904.572 112.667 906.862 115.078 914.033C116.685 918.814 118 923.542 118 924.54C118 927.061 123.202 933.348 128.264 936.946C130.594 938.601 134.525 941.843 137 944.149C142.635 949.4 154.105 955.668 164.372 959.108C173.1 962.032 180.207 962.121 200.5 959.558C215.547 957.658 224.813 957.774 229.116 959.915C232.055 961.378 233.402 963.154 236.315 969.411C238.285 973.644 240.88 979.807 242.081 983.105C245.005 991.136 249.073 995.911 260.485 1004.71C272.986 1014.35 278.073 1017.19 286.197 1019.05C293.789 1020.8 309.181 1021.07 316.908 1019.61C325.66 1017.95 358.724 1018.18 365.047 1019.94C374.138 1022.47 381.939 1022.9 386.876 1021.15C393.821 1018.68 395.941 1019.09 400.519 1023.84C404.991 1028.47 416.901 1038.47 422.375 1042.19C431.257 1048.22 455.245 1054.47 475.334 1055.98C479.642 1056.3 489.992 1057.74 498.334 1059.18C511.339 1061.42 515.566 1061.72 528 1061.34C540.286 1060.97 543.136 1061.17 546.663 1062.66C548.953 1063.63 555.919 1065.84 562.143 1067.57C568.367 1069.29 574.054 1071.2 574.781 1071.8C575.733 1072.59 575.921 1074.35 575.454 1078.09C574.818 1083.18 574.892 1083.38 579.326 1088.37C582.916 1092.41 584.398 1095.26 586.521 1102.22C589.445 1111.8 590.603 1113.26 603.295 1123.34C617.963 1134.99 630.994 1137.88 649.739 1133.64C654.821 1132.49 662.418 1131.55 666.621 1131.55C675.424 1131.55 686.242 1128.3 701.903 1120.95C713.366 1115.57 719.616 1110.92 725.383 1103.5C731.144 1096.08 733.047 1095.65 738.347 1100.51C740.631 1102.6 744.907 1105.16 747.849 1106.19C752.028 1107.65 753.609 1108.82 755.077 1111.55C756.11 1113.48 757.583 1115.85 758.352 1116.82C759.835 1118.7 769.309 1122.85 774.774 1124.02C776.575 1124.4 779.468 1125.91 781.203 1127.37C786.253 1131.62 794.434 1131.54 817.504 1127.01C833.31 1123.92 838.515 1123.3 848.5 1123.36C861.925 1123.44 865.473 1122.36 877.518 1114.53C880.828 1112.38 888.319 1108.85 894.165 1106.68C900.011 1104.51 905.949 1101.98 907.362 1101.06C909.742 1099.5 910.395 1099.49 916.279 1100.97C919.771 1101.84 924.27 1102.56 926.276 1102.56C931.84 1102.56 941.015 1106.4 945.728 1110.7C948.053 1112.82 950.895 1114.55 952.043 1114.55C953.191 1114.55 957.969 1116.58 962.661 1119.05C970.622 1123.25 971.704 1123.55 978.852 1123.55C983.065 1123.55 992.359 1122.84 999.506 1121.96C1006.65 1121.09 1015.88 1120.27 1020 1120.15C1042.12 1119.46 1069.12 1103.47 1076.74 1086.54C1078.35 1082.95 1080 1078.68 1080.41 1077.04C1080.82 1075.41 1083.66 1068.91 1086.71 1062.61C1091.92 1051.85 1092.4 1050.21 1094.62 1035.62C1096.73 1021.8 1097.47 1019.1 1101.39 1011.09C1105.89 1001.89 1106.29 1000.5 1110.09 980.612C1112.18 969.66 1112.23 968.377 1111.01 953.123C1109.89 939.171 1109.38 936.42 1106.99 931.626C1105.48 928.602 1103.27 922.576 1102.08 918.232C1100.9 913.89 1099.1 909.167 1098.09 907.737C1097.09 906.307 1095.97 904.184 1095.61 903.02C1095.24 901.855 1094.06 900.099 1092.97 899.116C1091.89 898.134 1091 896.232 1091 894.891C1091 893.549 1094.33 885.41 1098.41 876.803C1106.2 860.344 1106.73 858.602 1110.04 838.723C1111.76 828.392 1112.69 825.348 1115.54 820.731C1117.43 817.674 1121.16 808.875 1123.83 801.178C1126.5 793.482 1129.43 785.745 1130.34 783.985C1131.25 782.225 1132 780.193 1132 779.469C1132 778.744 1133.11 776.513 1134.47 774.511C1135.84 772.509 1137.36 769.058 1137.85 766.842C1138.35 764.627 1139.72 761.593 1140.9 760.101C1142.07 758.61 1144.19 753.523 1145.61 748.796C1147.03 744.069 1149.5 737.848 1151.09 734.97C1152.69 732.092 1154 728.868 1154 727.804C1154 726.74 1154.65 724.597 1155.43 723.041C1159.53 714.956 1165 694.313 1167.45 677.728C1170.84 654.71 1171.63 650.713 1174.64 641.354C1176.5 635.586 1177.02 632.352 1176.56 629.318C1176.18 626.754 1176.48 623.649 1177.35 621.187C1178.28 618.548 1178.52 615.657 1178.06 612.613C1177.67 610.088 1177.68 607.139 1178.08 606.061C1178.48 604.981 1179.11 599.187 1179.48 593.183C1180.09 583.165 1179.94 581.691 1177.67 575.269C1176.32 571.421 1174.68 565.573 1174.03 562.274C1173.39 558.976 1171.1 550.429 1168.96 543.282C1166.82 536.135 1164.37 527.282 1163.53 523.61C1162.68 519.936 1160.42 513.652 1158.49 509.644C1156.57 505.635 1155 501.733 1155 500.973C1155 500.213 1151.83 490.177 1147.95 478.671C1142.51 462.492 1140.49 454.871 1139.05 445.039C1133.56 407.566 1123.92 370.674 1112.99 345.362C1110.38 339.314 1107.69 332.567 1107.01 330.368C1105.06 324.054 1095.68 305.744 1090.29 297.712C1087.58 293.681 1083.68 287.178 1081.62 283.258C1079.57 279.34 1075.32 273.13 1072.19 269.457C1069.06 265.784 1065.03 260.893 1063.23 258.588C1055.43 248.61 1053.43 246.517 1045.68 240.269C1041.18 236.641 1035.44 231.138 1032.92 228.042C1025.1 218.439 1015.08 208.731 1000 196.166C992.025 189.52 983.475 181.899 981 179.229C977.378 175.323 974.958 173.814 968.595 171.496C963.666 169.701 958.632 166.941 955.225 164.167C952.219 161.719 947.676 158.815 945.13 157.713C939.543 155.293 934 150.266 934 147.618C934 146.556 935.766 142.484 937.925 138.568C940.084 134.651 942.513 129.648 943.323 127.449C944.133 125.25 945.739 121.092 946.892 118.209C948.122 115.13 949.627 107.453 950.536 99.6112L952.085 86.2566L948.477 78.0539C946.493 73.5427 944.428 67.0673 943.887 63.6637C943.347 60.261 941.589 54.9322 939.979 51.8214C938.37 48.7107 936.756 44.3094 936.393 42.0404C935.125 34.1105 929.455 29.9882 919.817 29.9882C914.709 29.9882 914.422 29.8313 909.035 24.1086C905.346 20.1901 902.166 17.8161 899.5 16.9884C897.3 16.3057 894.6 14.9562 893.5 13.9886C890.242 11.1228 885.957 9.36149 878 7.61619C873.875 6.71155 869.262 5.32911 867.748 4.54342C864.92 3.07601 849.921 1.48165 830.489 0.584014L819.479 0.0742188L812.989 6.87849ZM1111.85 175.609C1110.94 175.845 1108.94 177.852 1107.4 180.069C1105.86 182.286 1102.74 185.384 1100.46 186.953C1098.18 188.523 1095 191.302 1093.39 193.132C1091.78 194.96 1088.39 197.676 1085.84 199.166C1079.14 203.095 1075 209.76 1075 216.634C1075 219.591 1074.32 223.319 1073.5 224.918C1072.67 226.517 1071.53 231.171 1070.96 235.26C1070 242.137 1070.09 243.016 1072.17 247.002C1073.71 249.965 1074.35 252.773 1074.21 255.985C1074.07 259.219 1074.5 261.062 1075.59 261.969C1078.83 264.661 1083.03 271.903 1084.41 277.193C1085.19 280.2 1086.54 284.02 1087.4 285.682C1089.23 289.237 1095.54 294.705 1098.75 295.524C1099.99 295.839 1101 296.744 1101 297.535C1101 300.27 1105.61 303.553 1113.87 306.707C1123.57 310.412 1125.4 310.499 1137.9 307.861C1143.07 306.77 1150.4 305.877 1154.19 305.877C1162.15 305.877 1166.59 303.993 1176.98 296.217L1183.46 291.365L1185.48 282.796C1186.79 277.264 1188.49 272.931 1190.3 270.571C1191.83 268.56 1194.64 262.218 1196.54 256.477C1201.61 241.164 1201.42 234.812 1195.31 216.091C1189.57 198.505 1187.26 195.37 1180.74 196.307C1175.78 197.02 1175.36 196.78 1171.73 191.173C1170.21 188.836 1168.37 186.925 1167.64 186.925C1166.91 186.925 1161.92 185.088 1156.54 182.843C1150.58 180.354 1144.57 178.576 1141.13 178.288C1138.04 178.028 1133.7 177.417 1131.5 176.93C1126.65 175.856 1114.13 175.015 1111.85 175.609ZM363.683 660.923C363.364 661.719 363.127 661.483 363.079 660.318C363.036 659.264 363.272 658.675 363.604 659.007C363.936 659.338 363.972 660.201 363.683 660.923Z" fill="#FF5D28"/>
<circle cx="599.87" cy="567.87" r="415.37" stroke="white" stroke-width="25"/>
<path d="M486.89 600.874H383.136L375.31 467.79C374.484 452.851 362.145 441.154 347.225 441.154C347.207 441.154 347.178 441.154 347.151 441.154C331.649 441.154 319.019 453.781 319 469.321L326.638 630.47C327.389 645.493 339.737 657.256 354.752 657.256C354.761 657.256 354.77 657.256 354.78 657.246H486.892C502.413 657.246 515.043 644.6 515.043 629.06C515.042 613.52 502.41 600.874 486.89 600.874ZM486.9 638.464H354.769C354.759 638.464 354.759 638.464 354.759 638.464C349.749 638.464 345.629 634.547 345.386 629.557L337.766 469.339C337.766 466.83 338.742 464.462 340.525 462.696C342.289 460.93 344.645 459.952 347.168 459.952C347.178 459.952 347.187 459.952 347.206 459.952C352.188 459.952 356.299 463.851 356.579 468.868L364.931 610.831C365.221 615.792 369.331 619.673 374.296 619.673H486.899C492.069 619.673 496.282 623.882 496.282 629.068C496.283 634.255 492.07 638.464 486.9 638.464Z" fill="white"/>
<path d="M357.068 638.596C351.926 637.684 347.121 641.208 346.268 646.319L327.5 759.063C326.647 764.174 330.109 769.013 335.214 769.868C335.74 769.963 336.265 770 336.772 770C341.277 770 345.245 766.739 346.016 762.146L364.783 649.402C365.635 644.29 362.173 639.451 357.068 638.596Z" fill="white"/>
<path d="M486.9 638.464C481.72 638.464 477.516 642.664 477.516 647.86V760.604C477.516 765.799 481.72 769.999 486.9 769.999C492.079 769.999 496.283 765.789 496.283 760.604V647.86C496.283 642.664 492.079 638.464 486.9 638.464Z" fill="white"/>
<path d="M768.408 506.93H430.598C415.078 506.93 402.447 519.576 402.447 535.116C402.447 550.656 415.078 563.302 430.598 563.302H477.516V544.511H430.598C425.428 544.511 421.215 540.293 421.215 535.116C421.215 529.939 425.428 525.721 430.598 525.721H768.408C773.588 525.721 777.792 529.939 777.792 535.116C777.792 540.293 773.588 544.511 768.408 544.511H721.49V563.302H768.408C783.929 563.302 796.559 550.656 796.559 535.116C796.559 519.576 783.929 506.93 768.408 506.93Z" fill="white"/>
<path d="M430.598 544.511C425.419 544.511 421.215 548.721 421.215 553.906V760.604C421.215 765.799 425.419 769.999 430.598 769.999C435.778 769.999 439.982 765.789 439.982 760.604V553.906C439.982 548.721 435.778 544.511 430.598 544.511Z" fill="white"/>
<path d="M767.808 512.999C766.418 509.344 762.929 506.93 759.025 506.93H439.982C436.078 506.93 432.578 509.344 431.199 512.999C429.819 516.653 430.843 520.788 433.77 523.372L593.291 664.302C595.065 665.87 597.288 666.65 599.503 666.65C601.717 666.65 603.932 665.87 605.714 664.302L765.235 523.372C768.164 520.778 769.177 516.654 767.808 512.999ZM599.494 644.722L464.792 525.721H734.195L599.494 644.722Z" fill="white"/>
<path d="M768.408 544.511C763.219 544.511 759.025 548.721 759.025 553.906V760.604C759.025 765.799 763.219 769.999 768.408 769.999C773.588 769.999 777.792 765.789 777.792 760.604V553.906C777.792 548.721 773.598 544.511 768.408 544.511Z" fill="white"/>
<path d="M505.667 422.372H468.133C462.953 422.372 458.749 426.581 458.749 431.767V459.953C458.749 475.493 471.379 488.139 486.9 488.139C502.42 488.139 515.05 475.493 515.05 459.953V431.767C515.05 426.58 510.846 422.372 505.667 422.372ZM496.283 459.953C496.283 465.13 492.07 469.349 486.9 469.349C481.729 469.349 477.516 465.13 477.516 459.953V441.163H496.283V459.953Z" fill="white"/>
<path d="M496.283 478.744H477.516V516.325H496.283V478.744Z" fill="white"/>
<path d="M730.874 422.372H693.34C688.15 422.372 683.956 426.581 683.956 431.767V459.953C683.956 475.493 696.586 488.139 712.107 488.139C727.627 488.139 740.258 475.493 740.258 459.953V431.767C740.258 426.58 736.063 422.372 730.874 422.372ZM721.49 459.953C721.49 465.13 717.286 469.349 712.107 469.349C706.927 469.349 702.723 465.13 702.723 459.953V441.163H721.49V459.953Z" fill="white"/>
<path d="M721.49 478.744H702.723V516.325H721.49V478.744Z" fill="white"/>
<path d="M608.886 403.581H590.119V516.325H608.886V403.581Z" fill="white"/>
<path d="M637.037 403.581V441.163C637.037 446.34 632.833 450.558 627.653 450.558H571.352C566.181 450.558 561.968 446.34 561.968 441.163V403.581H543.201V441.163C543.201 456.703 555.831 469.349 571.352 469.349H627.653C643.174 469.349 655.804 456.703 655.804 441.163V403.581H637.037Z" fill="white"/>
<path d="M561.968 366H543.201V384.791H561.968V366Z" fill="white"/>
<path d="M608.886 366H590.119V384.791H608.886V366Z" fill="white"/>
<path d="M655.804 366H637.037V384.791H655.804V366Z" fill="white"/>
<path d="M851.875 441.163C851.838 441.163 851.838 441.163 851.791 441.163C836.852 441.163 824.504 452.86 823.687 467.77L815.862 600.883H712.108C696.587 600.883 683.957 613.529 683.957 629.069C683.957 644.609 696.587 657.255 712.108 657.255H844.22C844.23 657.255 844.238 657.255 844.248 657.255C859.253 657.255 871.611 645.501 872.362 630.45L879.953 470.823L880 469.31C879.969 453.78 867.339 441.163 851.875 441.163ZM853.621 629.53C853.377 634.547 849.248 638.464 844.237 638.464H712.107C706.927 638.464 702.723 634.255 702.723 629.069C702.723 623.883 706.927 619.674 712.107 619.674V619.664H824.71C829.673 619.664 833.783 615.783 834.075 610.823L842.426 468.831C842.698 463.851 846.818 459.952 851.828 459.952H851.838C851.848 459.952 851.848 459.952 851.857 459.952C857.027 459.952 861.231 464.17 861.222 469.846L853.621 629.53Z" fill="white"/>
<path d="M871.496 759.063L852.729 646.319C851.894 641.199 847.071 637.704 841.938 638.596C836.824 639.442 833.37 644.29 834.224 649.401L852.991 762.145C853.751 766.74 857.73 769.999 862.234 769.999C862.74 769.999 863.258 769.962 863.782 769.867C868.897 769.022 872.35 764.174 871.496 759.063Z" fill="white"/>
<path d="M712.107 638.464C706.918 638.464 702.723 642.664 702.723 647.86V760.604C702.723 765.799 706.918 769.999 712.107 769.999C717.286 769.999 721.49 765.789 721.49 760.604V647.86C721.49 642.664 717.295 638.464 712.107 638.464Z" fill="white"/>
</svg>
